<?xml version="1.0" encoding="UTF-8"?>
<svg id="Layer_1" data-name="Layer 1" xmlns="http://www.w3.org/2000/svg" viewBox="0 0 200 200">
  <defs>
    <style>
      .cls-1 {
        fill: #4d8463;
        opacity: .1;
      }

      .cls-1, .cls-2 {
        stroke-width: 0px;
      }

      .cls-3 {
        fill: none;
        stroke: #000;
        stroke-miterlimit: 10;
        stroke-width: 6px;
      }

      .cls-4 {
        letter-spacing: .03em;
      }

      .cls-5 {
        font-family: FuturaPT-Medium, 'Futura PT';
        font-size: 12px;
        font-weight: 500;
      }

      .cls-6 {
        letter-spacing: -.01em;
      }
    </style>
  </defs>
  <circle class="cls-1" cx="83.72" cy="139.12" r="5.34"/>
  <text class="cls-5" transform="translate(-122.13 159.16)"><tspan x="0" y="0">accomodations</tspan></text>
  <text class="cls-5" transform="translate(-122.13 54.88)"><tspan x="0" y="0">our sto</tspan><tspan class="cls-4" x="32.53" y="0">r</tspan><tspan x="36.89" y="0">y</tspan></text>
  <text class="cls-5" transform="translate(-122.13 107.73)"><tspan class="cls-6" x="0" y="0">w</tspan><tspan x="8.1" y="0">ee</tspan><tspan class="cls-6" x="19.67" y="0">k</tspan><tspan x="24.84" y="0">end at camp</tspan></text>
  <path class="cls-2" d="M60.77,54.23c.37-1.5.61-3.04,1.12-4.5,2.83-8.11,8.45-13.18,16.79-15.24.24-.06.49-.1.7-.14-1.47-1.57-2.85-3.13-4.34-4.57-.71-.69-1-1.22-.45-2.18.92-1.63,1.3-3.92,2.65-4.84,1.22-.83,3.44-.22,5.21-.23,2.16-.01,4.31-.05,6.47.03.47.02,1.13.38,1.34.77.93,1.75,1.74,3.57,2.63,5.46-.95.92-1.88,1.81-2.79,2.72-.87.87-1.7,1.77-2.61,2.71,1.49.47,2.98.84,4.39,1.41,4.86,1.96,8.61,5.24,11.24,9.78.41.71.66,1.12,1.7.85,14.71-3.87,27.31,6.7,28.52,19.03.02.2.15.4.23.6v4.53c-.09.24-.22.48-.26.74-1.51,9.33-6.74,15.7-15.69,18.52-8.97,2.82-16.92.49-23.44-6.29-1.44-1.49-2.52-3.32-3.81-5.05-.32.07-.74.15-1.15.26-11.58,3.04-23.49-3.42-27.28-14.84-.5-1.51-.78-3.1-1.17-4.65,0-1.62,0-3.24,0-4.85ZM94.61,76.54c3.72,8.38,14.76,12.3,23.6,8.44,9.41-4.11,13.68-14.95,9.52-24.34-4.36-9.82-15.14-12.74-22.28-10.01,2.23,11.01-1.31,19.66-10.83,25.91ZM99.73,48.21c-3.8-8.47-14.98-12.38-23.78-8.38-9.42,4.28-13.56,15.36-9.2,24.6,4.56,9.67,15.52,12.44,22.1,9.68-1.15-13.66.91-18.6,10.87-25.89ZM101.38,52.49c-6.47,2.97-10.56,12.78-8.32,19.72,4.89-2.31,10.58-10.36,8.32-19.72ZM83.53,32.55c1.47-1.66,2.58-2.9,3.65-4.17.21-.25.43-.73.32-.94-.16-.3-.61-.63-.94-.63-2.09-.06-4.19-.1-6.27,0-.87.04-1.39.61-.6,1.5,1.14,1.28,2.3,2.54,3.84,4.24Z"/>
  <path class="cls-3" d="M53.29,13.02c1.42-.22,2.7-.4,3.97-.6,18.4-2.97,34.85,2.66,50.49,11.59,6.59,3.76,12.9,8.02,19.5,11.77,9.59,5.44,19.79,8.97,31.01,7.5,4.89-.64,9.67-2.17,14.47-3.38,2.02-.51,3.94-1.46,5.98-1.84,4.92-.93,8.04,1.33,7.96,6.34-.06,3.77-.63,7.7-1.88,11.24-4.29,12.18-12.42,21.52-22.77,29-13.31,9.61-27.97,15.43-44.64,14.69-6.87-.31-13.69-1.71-20.56-2.23-14.07-1.06-27.72.39-40.25,7.7-2.5,1.46-3.56,3.1-3.54,6.18.15,25.77.1,51.55.08,77.32,0,5.37-3.5,8.68-8.56,8.23-3.5-.32-6.34-3.14-6.64-6.65-.06-.69-.04-1.4-.04-2.1,0-58.01.05-116.03-.09-174.04-.01-5.54,4.05-9.62,9.23-8.56,4.03.83,5.86,3.74,6.28,7.84Z"/>
</svg>