<?xml version="1.0" encoding="UTF-8"?>
<svg id="Layer_1" data-name="Layer 1" xmlns="http://www.w3.org/2000/svg" viewBox="0 0 200 200">
  <defs>
    <style>
      .cls-1 {
        stroke-width: 0px;
      }

      .cls-2 {
        letter-spacing: .03em;
      }

      .cls-3 {
        font-family: FuturaPT-Medium, 'Futura PT';
        font-size: 12px;
        font-weight: 500;
      }

      .cls-4 {
        letter-spacing: -.01em;
      }
    </style>
  </defs>
  <text class="cls-3" transform="translate(-122.13 159.16)"><tspan x="0" y="0">accomodations</tspan></text>
  <text class="cls-3" transform="translate(-122.13 54.88)"><tspan x="0" y="0">our sto</tspan><tspan class="cls-2" x="32.53" y="0">r</tspan><tspan x="36.89" y="0">y</tspan></text>
  <text class="cls-3" transform="translate(-122.13 107.73)"><tspan class="cls-4" x="0" y="0">w</tspan><tspan x="8.1" y="0">ee</tspan><tspan class="cls-4" x="19.67" y="0">k</tspan><tspan x="24.84" y="0">end at camp</tspan></text>
  <g>
    <path class="cls-1" d="M197.45,20.7v158.24c-.83,1.85-2.35,2.63-4.26,3.11-20.19,5.02-40.36,10.11-60.55,15.13-.99.25-2.16.25-3.15,0-19.82-4.92-39.63-9.9-59.45-14.83-.93-.23-2.02-.21-2.95.02-19.58,4.85-39.15,9.74-58.72,14.62-4.26,1.06-6.13-.4-6.13-4.81,0-51.15,0-102.3,0-153.45,0-3.57.82-4.61,4.24-5.46,20.24-5.07,40.48-10.16,60.73-15.19.93-.23,2.02-.21,2.96.03,19.88,4.94,39.75,9.93,59.64,14.88.81.2,1.77.19,2.58,0,19.7-4.88,39.4-9.8,59.09-14.71,3.16-.79,4.31-.32,5.97,2.45ZM10.02,188.46c.54-.11.84-.16,1.13-.23,17.29-4.32,34.58-8.67,51.89-12.92,1.52-.37,1.66-1.12,1.65-2.39-.02-33.86-.02-67.73-.02-101.59,0-14.04,0-28.09,0-42.13,0-.74,0-1.49,0-2.37-.76.15-1.31.23-1.85.37-16.99,4.24-33.96,8.52-50.97,12.7-1.63.4-1.87,1.17-1.86,2.62.03,47.91.03,95.82.03,143.74,0,.68,0,1.35,0,2.2ZM72.75,26.82c-.06.63-.14,1.12-.14,1.62,0,13.6,0,27.19-.03,40.79,0,1.13.56,1.51,1.35,2.16.97.79,1.94,2.16,1.99,3.32.05,1.07-.87,2.66-1.82,3.18-1.35.74-1.52,1.55-1.52,2.84.02,30.62.04,61.25-.03,91.87,0,1.82.54,2.48,2.28,2.9,12.63,3.08,25.24,6.27,37.86,9.42,4.71,1.18,9.43,2.33,14.26,3.53v-25.29c-1.81-.49-3.47-.9-5.09-1.4-2.43-.76-3.58-2.74-2.95-4.97.58-2.04,2.64-3.06,5.07-2.5.96.22,1.91.47,3.11.78v-2.33c0-36.72-.01-73.45.05-110.17,0-1.76-.58-2.37-2.2-2.77-10.17-2.47-20.31-5.05-30.47-7.58-7.19-1.79-14.39-3.58-21.71-5.39ZM189.66,26.91c-.46,0-.59-.03-.7,0-17.41,4.35-34.82,8.73-52.25,13.03-1.44.35-1.74.99-1.73,2.33.03,37.04.02,74.08.03,111.12,0,.53.07,1.06.12,1.67,1.65-.61,3.11-1.24,4.61-1.7,2.17-.66,4.04.25,4.81,2.22.76,1.94,0,4.04-2.05,4.92-2.33.99-4.62,2.54-7.41,1.16v26.76c.65-.13,1.21-.21,1.75-.34,16.98-4.24,33.96-8.51,50.96-12.7,1.59-.39,1.9-1.1,1.9-2.6-.04-47.97-.03-95.93-.03-143.9,0-.62,0-1.25,0-1.97Z"/>
    <path class="cls-1" d="M56.65,72.92c2.45.26,3.76.99,4.37,2.68.61,1.68.25,3.26-1.19,4.22-1.56,1.04-3.29,1.9-5.07,2.48-1.66.55-3.15-.25-4.03-1.75-.87-1.48-1-3.3.34-4.36,1.83-1.45,4.05-2.4,5.57-3.26Z"/>
    <path class="cls-1" d="M33.3,91.06c2.9.05,4.83,3.31,3.19,5.73-1.04,1.54-2.42,2.97-3.94,4.05-2.39,1.7-5.69-.11-5.84-3.03-.13-2.47,4.09-6.8,6.59-6.76Z"/>
    <path class="cls-1" d="M45.32,80.94c.53.42,1.99,1.05,2.46,2.11.48,1.08.46,2.94-.2,3.83-1.13,1.53-2.77,2.88-4.49,3.69-1.02.48-2.93.23-3.83-.47-.9-.7-1.46-2.39-1.41-3.62.09-2.12,4.49-5.54,7.46-5.55Z"/>
    <path class="cls-1" d="M26.89,106.14c-.03,2.43-2.98,5.39-5.31,5.33-2.01-.05-3.7-1.81-3.7-3.84,0-2.32,2.88-5.32,5.11-5.34,2.08-.02,3.92,1.8,3.9,3.86Z"/>
    <path class="cls-1" d="M111,145.04c.38.17,1.31.37,1.92.92,1.22,1.1,2.37,2.31,3.35,3.62,1.18,1.58.91,3.54-.42,4.86-1.33,1.32-3.38,1.64-4.84.4-1.43-1.21-2.81-2.62-3.8-4.2-1.49-2.4.47-5.52,3.78-5.6Z"/>
    <path class="cls-1" d="M100.95,109.13c.01,2.6-1.27,4.23-3.04,4.6-1.74.37-3.56-.42-4.22-2.14-.63-1.64-1.1-3.38-1.36-5.12-.26-1.74,1.04-3.37,2.73-3.87,1.73-.51,3.64.14,4.36,1.8.75,1.72,1.18,3.59,1.53,4.72Z"/>
    <path class="cls-1" d="M84.89,86.72c-2.58-.55-6.69-4.59-6.41-6.84.15-1.21.96-2.74,1.95-3.34.91-.56,2.77-.54,3.67.04,1.59,1.04,2.9,2.61,4.09,4.14.94,1.2.82,2.77-.2,3.87-.83.9-2.05,1.43-3.09,2.13Z"/>
    <path class="cls-1" d="M96.41,94.97c-.23,2.31-1.03,3.65-2.71,4.19-1.72.55-3.4.19-4.36-1.42-.89-1.51-1.6-3.18-2.1-4.86-.55-1.85.46-3.6,2.18-4.34,1.68-.72,3.56-.34,4.53,1.28,1.06,1.77,1.8,3.73,2.46,5.15Z"/>
    <path class="cls-1" d="M103.98,124.12c-.03,2.52-1.3,4.11-3.08,4.48-1.88.39-3.82-.59-4.38-2.49-.48-1.63-.76-3.35-.85-5.04-.1-1.95,1.38-3.52,3.29-3.82,1.71-.27,3.44.68,4.02,2.48.52,1.62.76,3.32,1,4.39Z"/>
    <path class="cls-1" d="M103.07,131.95c2.4-.02,3.42,1.57,4.19,3.51.87,2.17,2.15,4.35.07,6.52-1.66,1.73-4.55,1.59-5.78-.46-.96-1.6-1.7-3.43-2.1-5.25-.51-2.35,1.27-4.27,3.62-4.32Z"/>
    <path class="cls-1" d="M166.02,75.15c3.31-3.37,6.1-6.23,8.92-9.07,1.22-1.23,2.82-1.84,4.32-1.02,1.04.57,2.23,1.85,2.32,2.9.11,1.24-.59,2.84-1.46,3.84-2.16,2.49-4.62,4.72-6.95,7.06-.44.44-.86.91-1.4,1.49,2.52,2.52,4.99,4.98,7.45,7.44.49.49,1.01.97,1.45,1.51,1.52,1.87,1.47,4.01-.08,5.5-1.51,1.45-3.79,1.47-5.5-.15-2.49-2.35-4.88-4.82-7.3-7.26-.48-.49-.88-1.07-1.45-1.77-2.76,2.79-5.26,5.3-7.76,7.81-.54.54-1.07,1.1-1.67,1.55-1.63,1.23-3.67,1.14-5.06-.16-1.46-1.37-1.72-3.53-.34-5.16,1.6-1.88,3.41-3.59,5.16-5.34,1.3-1.3,2.65-2.54,4.13-3.95-2.93-2.91-5.76-5.56-8.35-8.41-.9-.99-1.73-2.55-1.64-3.78.09-1.12,1.26-2.47,2.33-3.11,1.38-.83,2.99-.3,4.18.85,2.1,2.03,4.17,4.09,6.21,6.19.83.86,1.53,1.85,2.48,3.03Z"/>
    <path class="cls-1" d="M165.21,135.13c-1.29,2.05-2.39,4.27-3.94,6.09-1.05,1.23-2.82,1.09-4.21.14-1.42-.97-2.26-2.42-1.61-4.1.68-1.75,1.57-3.48,2.66-5,1.02-1.42,2.63-1.71,4.28-1,1.55.67,2.33,1.89,2.34,3.59.16.1.32.19.48.29Z"/>
    <path class="cls-1" d="M170.45,121.46c-.5,1.3-1.07,3.26-1.99,5.03-.81,1.56-2.74,2.07-4.32,1.46-1.71-.66-2.88-1.94-2.54-3.77.37-1.96,1.03-3.93,1.95-5.69.8-1.52,2.44-1.97,4.14-1.42,1.77.57,2.64,1.87,2.76,4.39Z"/>
    <path class="cls-1" d="M146.28,150.3c0-2.28,3.77-6.44,6.05-6.66,2.86-.28,5.23,2.86,3.78,5.36-1.02,1.75-2.52,3.39-4.17,4.57-2.37,1.69-5.65-.34-5.66-3.27Z"/>
    <path class="cls-1" d="M173.91,107.97c-.12,3.39-1.79,5.49-4.34,5.43-2.2-.05-3.84-1.88-3.74-4.16.15-3.36,1.86-5.48,4.38-5.41,2.26.06,3.78,1.76,3.69,4.15Z"/>
  </g>
</svg>