<?xml version="1.0" encoding="UTF-8"?>
<svg id="Layer_1" data-name="Layer 1" xmlns="http://www.w3.org/2000/svg" viewBox="0 0 200 200">
  <defs>
    <style>
      .cls-1 {
        fill: none;
        stroke: #000;
        stroke-linecap: round;
        stroke-linejoin: round;
        stroke-width: 5px;
      }

      .cls-2 {
        letter-spacing: .03em;
      }

      .cls-3 {
        font-family: FuturaPT-Medium, 'Futura PT';
        font-size: 12px;
        font-weight: 500;
      }

      .cls-4 {
        letter-spacing: -.01em;
      }
    </style>
  </defs>
  <text class="cls-3" transform="translate(-122.13 159.16)"><tspan x="0" y="0">accomodations</tspan></text>
  <text class="cls-3" transform="translate(-122.13 54.88)"><tspan x="0" y="0">our sto</tspan><tspan class="cls-2" x="32.53" y="0">r</tspan><tspan x="36.89" y="0">y</tspan></text>
  <text class="cls-3" transform="translate(-122.13 107.73)"><tspan class="cls-4" x="0" y="0">w</tspan><tspan x="8.1" y="0">ee</tspan><tspan class="cls-4" x="19.67" y="0">k</tspan><tspan x="24.84" y="0">end at camp</tspan></text>
  <path class="cls-1" d="M46.02,186.63c.6-1.69,1.7-3.11,2.62-4.62,5.59-9.15,11.2-18.28,16.79-27.43.16-.26.24-.63.19-.92-.84-5.11-1.7-10.21-2.55-15.31-.15-.88-.29-1.77-.44-2.7,2.3-.36,4.56-.72,6.86-1.09.58,3.49,1.16,6.94,1.77,10.56,9.49-15.48,18.92-30.85,28.36-46.25-.15-.1-.28-.19-.41-.26-1.62-.95-3.27-1.86-4.86-2.86-1.98-1.25-3.3-3.02-3.9-5.24-.32-1.18-.5-2.41-.68-3.62-.13-.82.15-1.54.72-2.18,3.58-4.04,6.66-8.42,9.12-13.19,1.23-2.38,2.26-4.85,3.45-7.25.8-1.63,2.13-2.82,3.76-3.64,3.3-1.66,6.57-1.53,9.76.32,1.45.84,2.89,1.68,4.34,2.52.09.05.2.1.32.16,2.07-3.37,4.12-6.73,6.21-10.13-.65-.38-1.27-.73-1.88-1.1-1.46-.9-3-1.71-4.35-2.75-1.72-1.32-2.76-3.11-3.1-5.25-.17-1.07-.39-2.14-.53-3.21-.08-.67.21-1.27.66-1.78,5.19-5.82,9.3-12.32,12.12-19.49,1.76-4.46,8.1-7.71,13.75-4.5,1.5.85,2.98,1.73,4.46,2.59.14.08.28.16.44.25.08-.1.15-.17.21-.26,1.77-2.88,3.54-5.77,5.31-8.65.04-.07.06-.14.09-.22.06,0,.13,0,.19,0,1.04.63,2.08,1.26,3.13,1.88,1.02.6,2.05,1.2,3.09,1.8-1.88,3.07-3.74,6.1-5.61,9.16.18.11.33.21.48.3,1.46.85,2.92,1.7,4.38,2.55,1.97,1.16,3.36,2.79,4.14,4.91.37,1.02.73,2.04,1.09,3.07v1.33c-1.14,1.61-2.19,3.27-3.42,4.81-3.03,3.8-5.35,7.95-7.14,12.42-.99,2.47-2.36,4.76-4.08,6.79-2.86,3.38-8.06,4.19-11.97,1.99-1.57-.88-3.12-1.81-4.68-2.71-.12-.07-.25-.13-.41-.22-.03.05-.06.09-.09.13-2.03,3.32-4.07,6.63-6.13,9.99.12.08.23.16.35.23,1.43.83,2.86,1.67,4.3,2.5,2.07,1.19,3.56,2.86,4.36,5.08.37,1.03.71,2.06,1.01,3.1.21.75.05,1.46-.43,2.1-1.62,2.17-3.21,4.36-4.83,6.53-1.96,2.64-3.46,5.52-4.65,8.55-.96,2.45-2.3,4.69-3.73,6.89-2.78,4.31-8.47,5.68-13,3.14-1.66-.93-3.29-1.9-4.99-2.89-2.87,4.68-5.74,9.35-8.68,14.15,3.52-1.18,6.91-2.32,10.38-3.49.76,2.13,1.5,4.23,2.27,6.4-.66.23-1.3.45-1.93.66-5.31,1.79-10.62,3.57-15.93,5.37-.2.07-.42.24-.53.42-7.05,11.48-14.1,22.96-21.14,34.44-5.72,9.33-11.45,18.66-17.15,28-.7,1.15-1.54,2.05-2.91,2.39h-1.46c-.59-.32-1.22-.61-1.77-.99-.64-.44-.86-1.18-1.15-1.85v-1.42Z"/>
</svg>