<?xml version="1.0" encoding="UTF-8"?>
<svg id="Layer_1" data-name="Layer 1" xmlns="http://www.w3.org/2000/svg" viewBox="0 0 200 200">
  <defs>
    <style>
      .cls-1 {
        stroke-width: 0px;
      }

      .cls-2 {
        letter-spacing: .03em;
      }

      .cls-3 {
        font-family: FuturaPT-Medium, 'Futura PT';
        font-size: 12px;
        font-weight: 500;
      }

      .cls-4 {
        letter-spacing: -.01em;
      }
    </style>
  </defs>
  <path class="cls-1" d="M134.62,84.81c-.13,6.02-3.56,16.58-9.13,26.51-6.59,11.75-13.57,23.3-19.68,35.31-2.59,5.1-3.63,11.06-4.9,16.73-1,4.47-4.29,7.31-9.25,6.98-4.9-.33-7.64-3.13-7.64-7.97.02-8.25,2.73-15.65,6.87-22.7,7.63-13,15.41-25.93,22.48-39.23,4.08-7.68,6.72-16.08,4.36-25.09-1.8-6.88-7.62-10.45-13.92-8.62-5.53,1.6-8.48,6.37-7.29,12.01.49,2.34,1.28,4.62,1.96,6.92,1.23,4.12.2,7.43-2.85,9.06-3.32,1.77-6.77.82-9.5-2.62-11.8-14.85-3.29-37.07,15.44-39.35,5.77-.7,12.12-.12,17.67,1.6,10.3,3.18,15.69,12.79,15.35,30.45Z"/>
  <path class="cls-1" d="M92.01,196.59c-6.33-.14-8.91-1.69-9.52-5.71-.72-4.77,2.14-9.36,7.17-11.11,4.01-1.4,8.15-2.08,11.68,1.09,3.18,2.86,3.05,6.61,1.96,10.36-1.13,3.89-4.67,5.51-11.29,5.37Z"/>
  <text class="cls-3" transform="translate(-122.13 159.16)"><tspan x="0" y="0">accomodations</tspan></text>
  <text class="cls-3" transform="translate(-122.13 54.88)"><tspan x="0" y="0">our sto</tspan><tspan class="cls-2" x="32.53" y="0">r</tspan><tspan x="36.89" y="0">y</tspan></text>
  <text class="cls-3" transform="translate(-122.13 107.73)"><tspan class="cls-4" x="0" y="0">w</tspan><tspan x="8.1" y="0">ee</tspan><tspan class="cls-4" x="19.67" y="0">k</tspan><tspan x="24.84" y="0">end at camp</tspan></text>
</svg>