<?xml version="1.0" encoding="UTF-8"?>
<svg id="Layer_1" data-name="Layer 1" xmlns="http://www.w3.org/2000/svg" viewBox="0 0 200 200">
  <defs>
    <style>
      .cls-1 {
        stroke-width: 0px;
      }

      .cls-2 {
        letter-spacing: .03em;
      }

      .cls-3 {
        font-family: FuturaPT-Medium, 'Futura PT';
        font-size: 12px;
        font-weight: 500;
      }

      .cls-4 {
        letter-spacing: -.01em;
      }
    </style>
  </defs>
  <text class="cls-3" transform="translate(-122.13 159.16)"><tspan x="0" y="0">accomodations</tspan></text>
  <text class="cls-3" transform="translate(-122.13 54.88)"><tspan x="0" y="0">our sto</tspan><tspan class="cls-2" x="32.53" y="0">r</tspan><tspan x="36.89" y="0">y</tspan></text>
  <text class="cls-3" transform="translate(-122.13 107.73)"><tspan class="cls-4" x="0" y="0">w</tspan><tspan x="8.1" y="0">ee</tspan><tspan class="cls-4" x="19.67" y="0">k</tspan><tspan x="24.84" y="0">end at camp</tspan></text>
  <path class="cls-1" d="M55.63,52.45c.47,0,.94,0,1.4,0,3.05.94,6.08,1.99,9.16,2.8,9.21,2.4,18.65,3.09,28.1,3.13,7.51.03,15.03-.26,22.52-.82,6.21-.46,12.41-1.38,18.57-2.34,3.45-.54,6.82-1.55,10.22-2.41,1.9-.48,3.42-.04,4.61,1.53.24.32.48.64.71.97,3.33,4.94,5.61,10.4,7.54,15.98,4.64,13.39,9.1,26.85,13.69,40.25,3.36,9.81,6.68,19.65,11.04,29.08,3.44,7.43,7.19,14.69,12.22,21.21.95,1.23,1.73,2.61,2.58,3.92v1.4c-.67,1.66-1.83,2.94-3.24,3.97-1.53,1.13-3.07,2.25-4.69,3.25-6.96,4.3-14.51,7.33-22.2,10.03-14.46,5.08-29.31,8.76-44.27,12.03-2.47.54-4.94,1.07-7.41,1.6h-1.2c-.14-.07-.28-.17-.43-.22-8.47-2.74-16.95-5.44-25.41-8.22-5.64-1.85-11.23-3.83-16.85-5.74-1.84-.63-3.1-1.87-4.04-3.54-2.48-4.38-4.17-9.09-5.81-13.81-3.73-10.76-6.6-21.76-9.43-32.77-.13-.49-.29-.97-.48-1.59-.19.24-.3.32-.35.43-.46,1.21-.93,2.43-1.37,3.65-2.87,8-5.68,16.03-8.63,24-1.08,2.91-2.49,5.7-4.57,8.06-1.54,1.75-3.39,2.5-5.73,1.76-9.03-2.83-18.08-5.64-27.12-8.42-1.56-.48-2.75-1.27-3.26-2.89,0-.53,0-1.07,0-1.6.53-.85,1.04-1.7,1.58-2.54,2.02-3.14,4.33-6.13,6.02-9.44,5.14-10.03,10.18-20.12,15.01-30.3,7.47-15.76,14.69-31.65,22.12-47.43,1.89-4.01,4.12-7.85,6.26-11.74.74-1.34,1.64-2.59,3.15-3.22ZM62.92,62.69c.15.47.26.84.4,1.2,6.73,17.1,13.31,34.26,20.24,51.29,10.08,24.75,20.55,49.34,32.74,73.15.44.87.91,1.17,1.83.98,3.89-.79,7.81-1.43,11.67-2.33,14.04-3.29,27.96-6.99,41.43-12.2,5.36-2.07,10.59-4.44,15.45-7.54.61-.39,1.16-.86,1.74-1.3-.31-.49-.55-.85-.78-1.22-2.11-3.44-4.36-6.81-6.3-10.35-5.91-10.77-10.39-22.17-14.41-33.74-4.14-11.91-7.93-23.94-12.07-35.84-2.4-6.89-5.18-13.65-7.84-20.45-.36-.92-.96-1.76-1.53-2.57-.19-.27-.69-.53-.99-.47-2.65.52-5.26,1.19-7.92,1.67-8.42,1.54-16.9,2.68-25.46,2.88-8.75.21-17.51.2-26.25-.06-4.72-.14-9.43-.92-14.12-1.56-2.6-.35-5.15-1.01-7.83-1.55ZM106.49,186.94c-18.81-39.62-35.13-79.94-50.81-120.81-.82,1.59-1.58,2.95-2.24,4.36-7.5,16.12-14.97,32.26-22.49,48.37-5.59,11.97-11.18,23.95-17.88,35.36-.3.51-.55,1.05-.9,1.73,6.84,2.1,13.58,4.17,20.46,6.28,1.08-2.44,2.2-4.74,3.14-7.13,4.78-12.15,8.69-24.59,12.44-37.08.39-1.3.94-2.57,1.62-3.74.76-1.32,2.07-1.72,3.55-1.5,1.4.2,2.41.95,2.91,2.29.3.81.53,1.65.76,2.49,3.48,12.91,6.85,25.86,10.47,38.73,1.89,6.74,3.98,13.44,7.23,19.7.21.41.68.83,1.12.97,7.25,2.4,14.51,4.76,21.77,7.13,2.85.93,5.7,1.84,8.86,2.86Z"/>
</svg>