<?xml version="1.0" encoding="UTF-8"?>
<svg id="Layer_1" data-name="Layer 1" xmlns="http://www.w3.org/2000/svg" viewBox="0 0 200 200">
  <defs>
    <style>
      .cls-1 {
        stroke-width: 0px;
      }

      .cls-2 {
        letter-spacing: .03em;
      }

      .cls-3 {
        font-family: FuturaPT-Medium, 'Futura PT';
        font-size: 12px;
        font-weight: 500;
      }

      .cls-4 {
        letter-spacing: -.01em;
      }
    </style>
  </defs>
  <text class="cls-3" transform="translate(-122.13 159.16)"><tspan x="0" y="0">accomodations</tspan></text>
  <text class="cls-3" transform="translate(-122.13 54.88)"><tspan x="0" y="0">our sto</tspan><tspan class="cls-2" x="32.53" y="0">r</tspan><tspan x="36.89" y="0">y</tspan></text>
  <text class="cls-3" transform="translate(-122.13 107.73)"><tspan class="cls-4" x="0" y="0">w</tspan><tspan x="8.1" y="0">ee</tspan><tspan class="cls-4" x="19.67" y="0">k</tspan><tspan x="24.84" y="0">end at camp</tspan></text>
  <g>
    <path class="cls-1" d="M37.08,200.93c-3.81-1.04-7.3-2.59-10.14-5.52-8.14-8.4-5.19-23.26,5.61-27.78,1.08-.45,2.18-.84,2.83-1.09-2.64-1.75-5.75-3.27-8.19-5.53-5.43-5.04-6.49-13.69-2.91-20.24,3.61-6.61,11.38-10.53,18.54-8.71,8.66,2.2,17.19,4.91,25.77,7.44,9.08,2.67,18.14,5.42,27.23,8.05,1.05.3,2.34.31,3.39,0,16.6-4.88,33.18-9.81,49.75-14.78,7.32-2.2,13.8-1.09,19.26,4.52,8,8.22,5.02,23.04-5.56,27.51-1.14.48-2.3.91-3.66,1.44.76.31,1.38.59,2.01.83,7.62,2.9,12.33,9.94,11.76,17.61-.59,7.99-6.05,14.13-14.15,15.92-.24.05-.45.22-.68.34h-5.1c-1.17-.36-2.33-.74-3.5-1.09-16.62-4.94-33.23-9.91-49.87-14.78-1.22-.36-2.71-.35-3.93,0-10.39,3-20.76,6.12-31.12,9.21-7.42,2.21-14.83,4.44-22.24,6.65h-5.1ZM145.55,171.2c-.72-.24-1.15-.4-1.58-.52-23.64-7.04-47.29-14.09-70.93-21.13-10.01-2.98-20.01-5.98-30.02-8.94-5.04-1.49-9.47.25-11.5,4.45-2.63,5.44.21,11.07,6.62,12.98,33.34,9.93,66.68,19.84,100.02,29.76.52.15,1.06.22,1.7.35-1.5-6.82.6-12.27,5.69-16.94ZM112.46,152.4c.56.24.84.39,1.13.48,9.76,2.91,19.51,5.82,29.27,8.7.54.16,1.2.24,1.72.08,4.76-1.4,9.55-2.7,14.22-4.34,3.91-1.37,6.11-5.4,5.57-9.36-.79-5.84-6.07-9.14-12.07-7.42-6.77,1.94-13.52,4-20.27,6.01-6.43,1.92-12.87,3.84-19.58,5.85ZM82.03,180.31c.02-.15.04-.3.06-.45-10.11-3.02-20.21-6.05-30.33-9.02-.61-.18-1.37.13-2.42.26,5.37,4.85,7.3,10.41,5.86,17.2,9.12-2.71,17.98-5.35,26.84-7.98ZM155.75,192.31c4.72-.03,8.53-3.67,8.52-8.14-.02-4.56-3.69-8.29-8.17-8.32-4.66-.03-8.44,3.82-8.38,8.53.06,4.38,3.68,7.95,8.04,7.93ZM39.19,192.31c4.46.04,8.11-3.57,8.12-8.04.01-4.61-3.71-8.39-8.3-8.41-4.48-.02-8.2,3.69-8.25,8.23-.05,4.49,3.74,8.17,8.43,8.22Z"/>
    <path class="cls-1" d="M80.7,66.01c.23-3.94.41-7.7.68-11.46,1.18-16.87,7.09-31.91,17.89-44.91,2.57-3.09,5.78-5.65,8.77-8.38,1.34-1.22,2.96-1.68,4.72-.85,1.72.81,2.45,2.24,2.48,4.11.15,9.07,3.98,16.74,8.99,24.02,5.37,7.79,11.17,15.38,15.66,23.66,7.28,13.41,10.05,27.98,6.27,43.02-4.95,19.69-17.58,32.51-37.3,37.26-18.16,4.38-34.23-.64-47.31-13.99-11.02-11.25-15.23-25.1-14.05-40.72.61-8.16,2.1-16.05,6.11-23.29,2.08-3.75,4.73-7.05,8.28-9.55,3.38-2.38,6.43-1.24,7.37,2.77,1.12,4.74,2.75,9.25,5.56,13.28,1.48,2.12,3.25,3.88,5.88,5.03ZM62.41,56.15c-.07.1-.38.43-.61.81-.56.96-1.15,1.9-1.62,2.91-3.85,8.2-4.87,16.92-4.35,25.82,1.16,20.04,15.25,35.81,34.9,39.28,20.43,3.61,41.32-9.5,46.83-29.57,3.83-13.96,1.47-27.34-5.29-39.78-3.98-7.31-9.19-13.95-13.9-20.86-3.76-5.52-7.41-11.09-9.44-17.53-.44-1.39-.81-2.8-1.28-4.41-.47.49-.75.76-1.01,1.06-8.71,10.09-14.38,21.67-16.11,34.9-.93,7.04-.96,14.2-1.33,21.32-.2,3.84-1.87,5.47-5.71,5.19-5.82-.43-10.59-3.07-14.01-7.67-2.66-3.58-4.72-7.61-7.07-11.48Z"/>
  </g>
</svg>