<?xml version="1.0" encoding="UTF-8"?>
<svg id="Layer_1" data-name="Layer 1" xmlns="http://www.w3.org/2000/svg" viewBox="0 0 360 191.39">
  <defs>
    <style>
      .cls-1 {
        fill: #4d8463;
        opacity: .1;
      }

      .cls-1, .cls-2 {
        stroke-width: 0px;
      }

      .cls-2 {
        fill: #e9f4ed;
      }
    </style>
  </defs>
  <path class="cls-2" d="M301.7,111.15c-7.83,8.42-10.38,17.77-10.88,27.39-.3,5.77-2.54,9.66-6.12,13.6-2.08,2.3-4.04,5.1-4.9,8.02-1.28,4.36-1.98,8.68-5.72,11.98-.79.7-.09,4.25.99,5.67,2.73,3.57,4.39,7.23,4.27,12.99-1.33-1.44-1.89-1.87-2.21-2.44-2.19-3.87-4.44-7.72-6.47-11.68-1.79-3.51-3.4-7.12-4.93-10.75-1.48-3.52-2.82-7.1-4.09-10.7-1.17-3.3-2.29-6.63-3.21-10.01-1.06-3.88-1.86-7.84-3.68-11.74-4.3,4.36-5.81,9.2-5.83,14.86-.01,3.58-.89,7.23-1.84,10.71-1.54,5.64-3.65,11.12-5.13,16.77-.4,1.53.74,3.41.9,5.15.26,2.95.28,5.92.41,8.88-.67.03-1.34.07-2.01.1-.18-2.08-.12-4.22-.61-6.23-.42-1.7-1.47-3.24-2.25-4.86-1.15,1.28-2.69,2.38-3.37,3.87-1.07,2.33-1.57,4.92-2.95,7.35.55-9.62-4.67-17.23-7.72-25.53-1.3-3.53-3.57-4.59-6.98-4.64-18.26-.25-36.52-.56-54.77-.86-5.44-.09-10.89-.17-17.18-.27,4.66,10.85,8.99,20.94,13.32,31.04-.58.26-1.17.52-1.75.77-3.84-8.9-7.68-17.81-11.51-26.71l-.65.18c.13,8.66.25,17.32.38,25.99-.62.01-1.25.02-1.87.03-.11-8.93-.22-17.87-.33-26.8-.24-.12-.49-.23-.73-.35-3.85,9.09-7.69,18.18-11.54,27.27-.48-.2-.95-.41-1.43-.61,1.82-4.74,3.98-9.38,5.3-14.25.62-2.28-.19-5.04-.72-7.5-.37-1.69-1.71-3.17-2.04-4.86-.71-3.66-2.84-6.05-5.26-8.81-2.65-3.04-3.74-7.61-4.97-11.68-.94-3.12-1.04-6.5-1.52-9.76-.65-.08-1.31-.17-1.96-.25-.76,2.55-1.93,5.05-2.2,7.65-.63,6.1-1.48,11.78-7.37,15.5-1.32.83-1.82,3.69-1.87,5.63-.12,4.27-.02,8.27-4.04,11.31-1.18.9-.96,3.58-1.51,5.4-1.98,6.49-4.49,12.49-13.94,12.13,1.53-1.34,2.54-3.01,3.75-3.18,6.75-.93,6.64-6.7,8.31-11.23.21-.58-.17-1.61.17-1.87,6.43-4.96,3.18-13.27,6.65-19.3.73-1.26.1-3.52-.36-5.2-1.85-6.69-5.24-12.59-8.83-18.53-1.85-3.07-2.44-7.59-1.97-11.24,1.1-8.5-4.09-14.99-6.11-22.45-1.25-4.59-3.29-8.97-5.18-13.36-.72-1.67-2.01-3.1-3.04-4.64-1.09,1.41-2.56,2.66-3.19,4.24-2.71,6.77-4.35,13.62-4.26,21.16.05,4.61-3.04,9.26-4.71,13.89-1.33,3.69-2.58,7.4-4.01,11.05-.86,2.2-1.71,4.51-3.07,6.4-4.29,5.97-4.21,11.74,1.06,16.97,3.5,3.47,6,6.88,5.16,12.28-.29,1.87,1.21,4.29,2.46,6.06,2.45,3.47,5.08,6.66,4.22,11.4-.21,1.14.78,2.51,1.84,3.56-.13-11.09,1.71-22.63-8.94-30.8-1.94-1.49-2.78-4.42-4.12-6.69.56-.36,1.12-.73,1.69-1.09,1.96,2.47,3.93,4.95,6.63,8.35.49-7.57-1.79-14.29,1.47-20.25l1.62.05c.05,3.93.1,7.87.15,11.8.64.12,1.29.23,1.93.35,2.44-8.6,4.88-17.21,7.32-25.81.32-.02.65-.05.97-.07.21,1.37.85,2.83.57,4.09-1.37,5.93-2.2,12.16-4.69,17.61-4.48,9.81-3.19,18.99.72,28.44,6.13-4.86,9.51-10.84,8.17-19.04.61.03,1.23.05,1.84.08.42,2.47.84,4.94,1.35,8,1.57-1.4,2.67-2.38,3.77-3.36.38.23.75.45,1.13.68-1.09,1.9-1.92,4.01-3.33,5.63-1.68,1.93-3.89,3.39-5.81,5.12-4.21,3.8-6.38,8.38-5.65,14.23.29,2.32-.09,4.73-.17,7.37-3.21-.08-5.88-.15-9.16-.23-.49-3.43-.74-7.04-1.6-10.51-.52-2.08-2.14-3.86-3-5.88-1.33-3.12-3.07-6.25-3.48-9.52-.48-3.83-.81-7.08-4.32-9.66-1.89-1.39-3.29-4.09-3.88-6.46-1.31-5.28-1.73-10.72-5.33-15.29-2.24-2.84-3.86-6.2-5.6-9.41-1.28-2.37-2.31-4.89-3.58-7.64-5.31,5.99-11.07,11.55-11.06,20.52,0,2.3-.69,5.11-2.11,6.81-3.57,4.28-6.77,8.54-7.19,14.34-.04.56-.58,1.18-1.04,1.58-1.81,1.59-5.23,2.08-4.24,5.59,1.41,5.02,2.71,10.12,4.78,14.87,1.03,2.35,3.81,3.89,5.54,6,1,1.21,1.49,2.84,2.21,4.29l-1.85,1.21c-3.93-5.69-8.29-11.14-11.6-17.17-1.51-2.75-1.35-6.65-1.16-9.99.1-1.82,1.84-3.54,2.86-5.3.98-1.69,2.1-3.31,2.94-5.07,1.09-2.27,1.44-5.12,3.04-6.87,3.54-3.88,5.83-8.12,6.13-13.35.5-8.8,6.55-14.48,11.59-20.71.52-.64,1.98-1.33,2.4-1.06.76.49,1.15,1.65,1.55,2.59,1.39,3.3,2.64,6.66,4.09,9.93,1.04,2.34,2.1,4.72,3.54,6.81,1.13,1.64,2.85,2.88,4.31,4.29,1.52-1.92,4.41-3.92,4.3-5.74-.3-4.89,2.35-8.03,4.36-11.9,2.3-4.43,3.22-9.61,4.44-14.55,2.04-8.25,3.58-16.64,5.85-24.83.97-3.51,4.17-2.32,6.47-1.16,1.01.51,1.82,1.86,2.26,3.01,2.7,7.18,4.53,14.79,8.08,21.5,3.76,7.1,4.08,14.57,4.14,23.28,4.49-6.27,8.25-11.22,11.6-16.42.81-1.25.56-3.41.3-5.08-1.22-7.79-.16-14.72,4.55-21.55,3.46-5.02,5.04-11.34,7.37-17.11.28-.69.3-1.7.01-2.38-3.29-7.85,1.72-13.72,5.04-19.76,2.44-4.45,5.45-3.91,7.61.77.27.59.64,1.19.69,1.8,1.19,14.44,8.86,27.58,8.43,42.36-.15,5.1,1.49,9.68,5.47,14.08.67-1.84.85-3.19,1.57-4.1,1.21-1.52,2.83-3.9,4.18-3.84,1.79.08,4.37,1.81,5.05,3.46,1.37,3.37,2.03,7.14,2.38,10.8.56,5.81,2.55,10.75,6.09,15.49,2.17,2.9,2.86,6.94,4.09,10.5.78,2.26.77,5,2.1,6.8,3.05,4.14,5.33,8.35,5.75,13.62.08.94,2.73,2.35,4.23,2.41,10.49.39,20.99.46,31.49.68,7.47.15,7.47.18,12.44,6.69,1.88-3.7,4.68-6.89,5.05-10.34,1.07-10.17,7.4-17.72,11.61-26.33,1.86-3.81,2.99-7.99,4.22-12.08.74-2.45,1.13-5.01,1.5-7.55.48-3.31.64-6.67,1.18-9.97.53-3.3,1.09-6.63,2.17-9.77.41-1.18,2.27-2.44,3.55-2.54.9-.07,2.49,1.61,2.82,2.78,1.02,3.55,1.36,7.29,2.39,10.84.83,2.86,1.64,6.12,3.55,8.18,4.33,4.67,5.75,10.14,6.99,16.12,1.93,9.32,4.76,18.46,7.46,28.6,5.26-4.65,8.48-8.1,8.43-14.37-.05-7.17,1.04-14.49,5.83-20.56,1.18-1.5,1.78-3.44,2.82-5.06.72-1.12,1.94-3,2.61-2.87,1.53.3,2.99,1.48,4.22,2.59.63.57.81,1.73,1.01,2.67,1.43,6.58,2.81,13.16,5.26,19.99,2.66-5.8,5.32-11.59,8.16-17.78,3.09.51,5.95,2.12,8.06,5.67,1.67,2.81,4.41,4.98,6.57,7.52,1.65,1.94,3.32,3.9,4.65,6.05,2.02,3.29,4.19,6.6,5.47,10.19,1.19,3.36,1.58,7.09,1.8,10.69.18,2.93-.39,5.92-.66,9.18-3.02-1.36-3.5-3.86-2.28-6.51,2.42-5.22,1.4-9.57-2.15-13.88-1.6-1.95-2.32-4.6-3.63-6.82-1.39-2.34-2.86-4.66-4.57-6.77-2.59-3.21-5.36-6.26-8.14-9.31-1.03-1.13-2.29-2.04-3.13-2.79-8.97,14.15-9.28,27.81.78,40.99,1.28-6.54,4.91-13.37-2.22-18.99-1.13-.89-1.06-3.29-1.54-4.99.44-.19.88-.39,1.31-.58,1.07,1.74,2.15,3.48,3.41,5.53,1.06-1.24,1.89-2.23,3.38-3.97.89,3.24,1.56,5.71,2.45,8.93,1.5-2.7,2.61-4.71,3.73-6.71.57.2,1.15.41,1.72.61-.88,2.37-1.77,4.75-2.66,7.12-1.68,4.47-3.45,8.91-4.96,13.44-.27.82.49,1.99,1.1,4.15,3.86-4.86,7.09-8.94,10.32-13.01.38.12.77.23,1.15.35-.69,1.85-.85,4.3-2.15,5.44-6.7,5.88-8.59,13.27-7.99,21.78.14,2.05-.65,4.14-.81,6.23-.24,3.1-1.8,3.81-4.47,2.94,3.31-10.84.11-20.08-6.33-28.66-1.24-1.65-2.27-3.57-2.91-5.53-1.85-5.73-2.51-11.57-5.99-17.1-3.12-4.96-3.13-11.9-4.46-17.97-.59-2.71-1.06-5.44-1.76-9.06ZM130.79,42.1c-.7,0-1.4,0-2.1,0-2.58,6.22-7.84,11.44-5.96,19.31.33,1.39.95,3.03.51,4.22-2.08,5.7-3.62,11.88-6.98,16.76-4.26,6.19-6.02,12.42-4.83,19.59.81,4.84-.47,8.72-3.68,12.45-2.5,2.9-4.81,6.26-6.06,9.82-.98,2.79-.91,6.4-.07,9.28,1.27,4.37,3.58,8.45,5.53,12.62.71,1.53,1.64,2.97,2.54,4.57,4.57-4.39,4.76-7.25,1.61-13.24-1.16-2.2-1.9-4.61-2.84-6.93.53-.2,1.05-.39,1.58-.59,1.12,1.8,2.23,3.6,3.64,5.87.82-1.27,1.14-2.01,1.67-2.53,1.29-1.28,2.68-2.45,4.03-3.67,1.14,1.64,2.68,3.14,3.32,4.96.7,1.99.56,4.27.79,6.43,1.26-5.38,3.07-11.1,1.74-15.97-1.33-4.87-5.81-8.88-9.68-14.36,3.19,1.79,5.5,3.09,6.76,3.79.48-6.67,1.29-13.6,1.38-20.54.06-4.87-.87-9.75-1.33-14.63-.08-.86-.02-1.73-.04-3.32,1.97,1.58,3.36,2.69,4.74,3.8,1.63-2.3,3.05-4.31,4.48-6.32.51.31,1.01.61,1.52.92-1.35,3.35-2.92,6.64-4,10.07-1.1,3.49-1.72,7.12-2.55,10.69.33.07.66.14.99.21,2.19-2.9,4.38-5.81,6.58-8.71.35.3.7.6,1.05.9-2.76,6.1-6.87,11.99-7.89,18.37-1.03,6.44,1.01,13.38,1.84,21.38,3.77-4.86,6.54-8.44,9.31-12.01.56.27,1.12.55,1.67.82-8.04,10.49-13.52,21.75-12.51,35.92,2.28-2.7,4.18-4.5,5.5-6.66,1.21-1.97,2.67-4.42,2.46-6.51-.59-6,2.02-10.26,6.03-14.1,6.58-6.3,7.94-14.26,3.47-22.39-3.44-6.27-5.01-12.83-4.87-19.97.06-3.18-.51-6.44-1.23-9.56-1.57-6.86-3.37-13.66-5.16-20.46-.9-3.44-1.96-6.85-2.95-10.27ZM257.3,88.82c-.46-.09-.93-.18-1.39-.28-.83,2.15-2.06,4.23-2.42,6.46-1.01,6.31-2.25,12.67-2.31,19.02-.07,7.96-3.89,14.09-7.7,20.47-2.63,4.41-4.98,9.02-6.99,13.73-2,4.69-2.96,9.84-5.21,14.39-2.93,5.94-.73,10.67,1.78,15.78,9.06-5.35,11.28-9.64,8.7-16.76-.7-1.94-2.1-3.62-2.94-5.52-.37-.85-.12-1.96-.15-2.95.37-.08.74-.16,1.11-.23,1.4,1.83,2.79,3.65,4.19,5.48.49.03.97.05,1.46.08.59-2.8,1.34-5.59,1.74-8.42.59-4.11.43-8.38,1.48-12.34,1.74-6.55,3.66-7.36,9.83-5.4,1.51-3.62.21-6.41-2.17-9.21-1.5-1.76-4.24-3.68-1.51-7.03,2.4,3.36,4.58,6.41,7.2,10.07,1.1-3.41,1.87-5.82,2.64-8.24.7.17,1.4.34,2.1.51-.64,2.87-1.15,5.77-1.94,8.6-1.23,4.44-3.36,8.75-3.85,13.25-1.22,11.43,7.65,20.19,8.96,31.06.03.22.48.38.75.56,6.35-5.2,9.18-14.44,6.83-22.04-2.79-9.02-7.27-17.52-7.57-27.31-.1-3.24-.97-7.38-3.1-9.47-5.81-5.71-7.12-12.76-8.16-20.17-.2-1.4-.89-2.72-1.36-4.08ZM160.42,156.14c5,.4,8.34.64,11.68.95,3.88.36,5.73-1.29,4.34-5.07-3.39-9.25-7.04-18.4-10.59-27.59-.11-.29-.31-.59-.54-.8-4.3-3.87-5.09-9.13-5.87-14.45-.53-3.65-1.22-7.3-2.17-10.87-.26-.99-1.68-2.25-2.62-2.3-.81-.04-2.21,1.33-2.47,2.31-1.03,3.84-2.01,7.75-2.46,11.69-.79,6.85-1.9,13.13-7.87,17.99-2.43,1.98-3.07,6.29-4.21,9.64-.76,2.25-.14,5.68-1.57,6.87-6.56,5.44-5.07,11.41-2.21,17.77.46,1.02.79,2.11,1.12,3.18.38,1.22.71,2.46.93,3.24,7.21-5.99,3.29-12,3.06-17.77,1.29.54,2.23,1.06,2.5,1.83,1.34,3.77,4.66,4.36,7.49,3.51,1.93-.58,3.84-3.12,4.63-5.22,2.1-5.53-.43-10.31-3.3-14.98-1.13-1.83-1.55-4.1-2.3-6.16.46-.13.91-.27,1.37-.4,2.26,3.13,4.52,6.26,6.78,9.39.41-.13.83-.26,1.24-.39.25-3.13.51-6.26.76-9.39.55.08,1.1.16,1.64.24,2.77,9.56-3.47,18.02-4.23,27.44,2.45-1.86,3.96-4.38,6.07-6.21,2.28-1.98,5.11-3.33,7.7-4.95.36.45.72.89,1.09,1.34-2.97,2.72-5.94,5.44-10,9.16Z"/>
  <path class="cls-2" d="M196.4,43.54c-3.7,6.37-7.85,12.65-3.48,20.23,4.35,7.55,10.96,8.02,18.73,5.05.22.54.44,1.08.67,1.62-1.35,1.88-2.38,4.17-4.11,5.57-6.33,5.11-14.3,5.62-20.78,1.71-6.42-3.87-10.21-11.95-8.88-19.56,1.03-5.92,3.53-11.23,8.94-14.28,2.29-1.29,5.32-1.28,8.01-1.86.3.5.61,1.01.91,1.51ZM205.26,73.85c-8.07-.69-12.97-3.86-15.61-10.08-2.59-6.11-1.77-12.11,1.3-18.13-5.89,2.47-9.07,6.49-9.73,12.39-.82,7.37,1.57,13.44,7.88,17.47,5.04,3.21,10.08,2.11,16.16-1.65Z"/>
  <path class="cls-2" d="M293.88,143.57c2.21,3.56,4.43,7.13,7.01,11.28,1.16-3.4,1.97-5.81,2.79-8.21.58.09,1.15.19,1.73.28-.53,6.54-.35,13.24-1.79,19.58-1.4,6.16-4.44,11.96-6.76,17.91.42.2.84.41,1.27.61,3.45-2.77,6.9-5.54,11.67-9.36-1.04,2.51-1.28,4.12-2.19,5.1-2.63,2.83-5.36,5.62-8.38,8.01-2.23,1.76-4.41,2.2-5.86-1.62-.84-2.22-3.25-3.91-5.09-5.68-1.18-1.13-2.62-1.99-3.95-2.97.25-.49.5-.98.75-1.48,2.87,1.2,5.74,2.4,8.94,3.75,1.6-7.03-6.19-10.23-6.64-16.08.42-.25.84-.51,1.26-.76,2.74,3.55,5.48,7.09,8.22,10.64,4.92-4.81,5.26-13.88.82-19.8-1.54-2.06-3.25-4.06-4.39-6.33-.68-1.35-.41-3.18-.56-4.79.39-.02.77-.04,1.16-.06Z"/>
  <path class="cls-2" d="M43.5,188.03c2.72-4.24,4.98-7.9,7.43-11.44.62-.9,1.82-1.39,2.76-2.07.19,1.28.98,2.9.47,3.77-2.35,4.03-4.79,8.08-7.8,11.61-.9,1.05-4.64,1.33-5.57.42-4.44-4.35-8.49-9.12-12.36-14-1.03-1.3-.9-3.53-1.3-5.33.6-.27,1.2-.54,1.8-.82.77,1.32,1.54,2.64,2.94,5.05,2.31-3.84,4.2-6.97,6.27-10.42,2.49,3.19,1.01,6.19-.66,8.34-3.35,4.31-1.93,7.27,1.62,10.26,1.33,1.12,2.42,2.52,4.4,4.62Z"/>
  <path class="cls-2" d="M248.89,165.62c1.77,1.76,2.72,2.72,4.57,4.56,1.08-5.22,2-9.65,2.92-14.08l1.28-.2c.24,2.02.91,4.09.65,6.04-.88,6.7-2.09,13.35-3.14,20.02-.09.56.09,1.17.27,3.14,2.25-3.39,3.82-5.75,5.39-8.12.44.17.88.35,1.31.52-.44,1.46-.8,2.94-1.35,4.36-.34.89-.88,1.74-1.46,2.51-1.43,1.9-2.94,3.74-4.41,5.61-.97-2.38-2.17-4.69-2.87-7.14-1.3-4.57-2.34-9.23-3.41-13.86-.16-.69.09-1.47.24-3.34Z"/>
  <path class="cls-2" d="M123.04,166.45c-2.58,8.32-4.91,15.89-7.35,23.42-.14.44-1.28.56-2.56,1.06.31-1.45.3-2.42.71-3.14,2.22-3.87,1.25-7.23-.93-10.85-1.65-2.75-2.41-6.02-3.57-9.07.56-.23,1.12-.45,1.68-.68,1.47,2.84,2.94,5.69,4.58,8.85,3.04-2.94,1.91-8.39,7.43-9.6Z"/>
  <path class="cls-2" d="M331.11,188.73c6.68-1.74,7.67-7.2,9.28-12.43.49-1.6,2.35-2.77,4.29-4.93.14,1.86.45,2.67.2,3.23-1.31,3.03-2.93,5.94-4.12,9.01-1.78,4.59-4.21,6.19-9.65,5.1Z"/>
  <path class="cls-2" d="M111.61,190.64c-5.22-1.48-6.55-4.31-4.68-9.49,1.61,3.27,2.93,5.95,4.68,9.49Z"/>
  <path class="cls-2" d="M102.52,79.58h-.11c0-.07-.02-.14-.02-.21-.1-2.65-2.29-4.71-4.35-5.09-.35-.06-.71-.09-1.06-.14v-.11c.12-.01.25-.03.37-.04,2.43-.13,4.34-2.15,4.82-3.92.13-.48.17-.98.25-1.47.04,0,.07,0,.11,0,0,.07.02.14.02.21.1,2.66,2.24,4.53,3.91,4.97.49.13,1,.17,1.5.25v.11c-.07,0-.14.02-.21.02-2.63.09-4.6,2.24-5.03,4.11-.1.42-.13.86-.19,1.3Z"/>
  <path class="cls-2" d="M28.14,79.58h-.11c0-.07-.02-.14-.02-.21-.1-2.65-2.29-4.71-4.35-5.09-.35-.06-.71-.09-1.06-.14v-.11c.12-.01.25-.03.37-.04,2.43-.13,4.34-2.15,4.82-3.92.13-.48.17-.98.25-1.47.04,0,.07,0,.11,0,0,.07.02.14.02.21.1,2.66,2.24,4.53,3.91,4.97.49.13,1,.17,1.5.25v.11c-.07,0-.14.02-.21.02-2.63.09-4.6,2.24-5.03,4.11-.1.42-.13.86-.19,1.3Z"/>
  <path class="cls-2" d="M163.86,19.3h-.11c0-.07-.02-.14-.02-.21-.1-2.65-2.29-4.71-4.35-5.09-.35-.06-.71-.09-1.06-.14v-.11c.12-.01.25-.03.37-.04,2.43-.13,4.34-2.15,4.82-3.92.13-.48.17-.98.25-1.47.04,0,.07,0,.11,0,0,.07.02.14.02.21.1,2.66,2.24,4.53,3.91,4.97.49.13,1,.17,1.5.25v.11c-.07,0-.14.02-.21.02-2.63.09-4.6,2.24-5.03,4.11-.1.42-.13.86-.19,1.3Z"/>
  <path class="cls-2" d="M151.61,79.58h-.11c0-.07-.02-.14-.02-.21-.1-2.65-2.29-4.71-4.35-5.09-.35-.06-.71-.09-1.06-.14v-.11c.12-.01.25-.03.37-.04,2.43-.13,4.34-2.15,4.82-3.92.13-.48.17-.98.25-1.47.04,0,.07,0,.11,0,0,.07.02.14.02.21.1,2.66,2.24,4.53,3.91,4.97.49.13,1,.17,1.5.25v.11c-.07,0-.14.02-.21.02-2.63.09-4.6,2.24-5.03,4.11-.1.42-.13.86-.19,1.3Z"/>
  <path class="cls-2" d="M188.06,99.52h-.11c0-.07-.02-.14-.02-.21-.1-2.65-2.29-4.71-4.35-5.09-.35-.06-.71-.09-1.06-.14v-.11c.12-.01.25-.03.37-.04,2.43-.13,4.34-2.15,4.82-3.92.13-.48.17-.98.25-1.47.04,0,.07,0,.11,0,0,.07.02.14.02.21.1,2.66,2.24,4.53,3.91,4.97.49.13,1,.17,1.5.25v.11c-.07,0-.14.02-.21.02-2.63.09-4.6,2.24-5.03,4.11-.1.42-.13.86-.19,1.3Z"/>
  <path class="cls-2" d="M218.09,139.54h-.11c0-.07-.02-.14-.02-.21-.1-2.65-2.29-4.71-4.35-5.09-.35-.06-.71-.09-1.06-.14v-.11c.12-.01.25-.03.37-.04,2.43-.13,4.34-2.15,4.82-3.92.13-.48.17-.98.25-1.47.04,0,.07,0,.11,0,0,.07.02.14.02.21.1,2.66,2.24,4.53,3.91,4.97.49.13,1,.17,1.5.25v.11c-.07,0-.14.02-.21.02-2.63.09-4.6,2.24-5.03,4.11-.1.42-.13.86-.19,1.3Z"/>
  <path class="cls-2" d="M238.17,97.63h-.11c0-.07-.02-.14-.02-.21-.1-2.65-2.29-4.71-4.35-5.09-.35-.06-.71-.09-1.06-.14v-.11c.12-.01.25-.03.37-.04,2.43-.13,4.34-2.15,4.82-3.92.13-.48.17-.98.25-1.47.04,0,.07,0,.11,0,0,.07.02.14.02.21.1,2.66,2.24,4.53,3.91,4.97.49.13,1,.17,1.5.25v.11c-.07,0-.14.02-.21.02-2.63.09-4.6,2.24-5.03,4.11-.1.42-.13.86-.19,1.3Z"/>
  <path class="cls-2" d="M211.37,19.3h-.11c0-.07-.02-.14-.02-.21-.1-2.65-2.29-4.71-4.35-5.09-.35-.06-.71-.09-1.06-.14v-.11c.12-.01.25-.03.37-.04,2.43-.13,4.34-2.15,4.82-3.92.13-.48.17-.98.25-1.47.04,0,.07,0,.11,0,0,.07.02.14.02.21.1,2.66,2.24,4.53,3.91,4.97.49.13,1,.17,1.5.25v.11c-.07,0-.14.02-.21.02-2.63.09-4.6,2.24-5.03,4.11-.1.42-.13.86-.19,1.3Z"/>
  <path class="cls-2" d="M326.76,19.3h-.11c0-.07-.02-.14-.02-.21-.1-2.65-2.29-4.71-4.35-5.09-.35-.06-.71-.09-1.06-.14v-.11c.12-.01.25-.03.37-.04,2.43-.13,4.34-2.15,4.82-3.92.13-.48.17-.98.25-1.47.04,0,.07,0,.11,0,0,.07.02.14.02.21.1,2.66,2.24,4.53,3.91,4.97.49.13,1,.17,1.5.25v.11c-.07,0-.14.02-.21.02-2.63.09-4.6,2.24-5.03,4.11-.1.42-.13.86-.19,1.3Z"/>
  <path class="cls-2" d="M215.2,54.69h-.11c0-.07-.02-.14-.02-.21-.1-2.65-2.29-4.71-4.35-5.09-.35-.06-.71-.09-1.06-.14v-.11c.12-.01.25-.03.37-.04,2.43-.13,4.34-2.15,4.82-3.92.13-.48.17-.98.25-1.47.04,0,.07,0,.11,0,0,.07.02.14.02.21.1,2.66,2.24,4.53,3.91,4.97.49.13,1,.17,1.5.25v.11c-.07,0-.14.02-.21.02-2.63.09-4.6,2.24-5.03,4.11-.1.42-.13.86-.19,1.3Z"/>
  <path class="cls-2" d="M302.56,54.69h-.11c0-.07-.02-.14-.02-.21-.1-2.65-2.29-4.71-4.35-5.09-.35-.06-.71-.09-1.06-.14v-.11c.12-.01.25-.03.37-.04,2.43-.13,4.34-2.15,4.82-3.92.13-.48.17-.98.25-1.47.04,0,.07,0,.11,0,0,.07.02.14.02.21.1,2.66,2.24,4.53,3.91,4.97.49.13,1,.17,1.5.25v.11c-.07,0-.14.02-.21.02-2.63.09-4.6,2.24-5.03,4.11-.1.42-.13.86-.19,1.3Z"/>
  <path class="cls-2" d="M253.36,60.18h-.11c0-.07-.02-.14-.02-.21-.1-2.65-2.29-4.71-4.35-5.09-.35-.06-.71-.09-1.06-.14v-.11c.12-.01.25-.03.37-.04,2.43-.13,4.34-2.15,4.82-3.92.13-.48.17-.98.25-1.47.04,0,.07,0,.11,0,0,.07.02.14.02.21.1,2.66,2.24,4.53,3.91,4.97.49.13,1,.17,1.5.25v.11c-.07,0-.14.02-.21.02-2.63.09-4.6,2.24-5.03,4.11-.1.42-.13.86-.19,1.3Z"/>
  <path class="cls-2" d="M285.07,113.65h-.11c0-.07-.02-.14-.02-.21-.1-2.65-2.29-4.71-4.35-5.09-.35-.06-.71-.09-1.06-.14v-.11c.12-.01.25-.03.37-.04,2.43-.13,4.34-2.15,4.82-3.92.13-.48.17-.98.25-1.47.04,0,.07,0,.11,0,0,.07.02.14.02.21.1,2.66,2.24,4.53,3.91,4.97.49.13,1,.17,1.5.25v.11c-.07,0-.14.02-.21.02-2.63.09-4.6,2.24-5.03,4.11-.1.42-.13.86-.19,1.3Z"/>
  <circle class="cls-1" cx="270.43" cy="76" r="1.39"/>
  <circle class="cls-1" cx="316.75" cy="76" r="1.39"/>
  <circle class="cls-1" cx="49.82" cy="76" r="1.39"/>
  <circle class="cls-1" cx="231.27" cy="76" r="1.39"/>
  <circle class="cls-1" cx="231.27" cy="28.21" r="1.39"/>
  <circle class="cls-1" cx="267.65" cy="13.81" r="1.39"/>
  <circle class="cls-1" cx="231.27" cy="112.27" r="1.39"/>
  <circle class="cls-1" cx="191.77" cy="112.27" r="1.39"/>
  <circle class="cls-1" cx="191.77" cy="140.93" r="1.39"/>
  <circle class="cls-1" cx="191.77" cy="28.21" r="1.39"/>
  <circle class="cls-1" cx="107.95" cy="15.2" r="1.39"/>
  <circle class="cls-1" cx="14.86" cy="15.2" r="1.39"/>
  <circle class="cls-1" cx="154.16" cy="45.64" r="1.39"/>
  <circle class="cls-1" cx="37.74" cy="45.64" r="1.39"/>
  <circle class="cls-1" cx="66.11" cy="45.64" r="1.39"/>
</svg>