<?xml version="1.0" encoding="UTF-8"?>
<svg id="Layer_1" data-name="Layer 1" xmlns="http://www.w3.org/2000/svg" viewBox="0 0 360 300">
  <defs>
    <style>
      .cls-1 {
        fill: #e9f4ed;
        stroke-width: 0px;
      }
    </style>
  </defs>
  <path class="cls-1" d="M85.13,277.15h-.11c0-.07-.02-.14-.02-.21-.1-2.65-2.29-4.71-4.35-5.09-.35-.06-.71-.09-1.06-.14v-.11c.12-.01.25-.03.37-.04,2.43-.13,4.34-2.15,4.82-3.92.13-.48.17-.98.25-1.47.04,0,.07,0,.11,0,0,.07.02.14.02.21.1,2.66,2.24,4.53,3.91,4.97.49.13,1,.17,1.5.25v.11c-.07,0-.14.02-.21.02-2.63.09-4.6,2.24-5.03,4.11-.1.42-.13.86-.19,1.3Z"/>
  <path class="cls-1" d="M175.08,24.92h-.11c0-.07-.02-.14-.02-.21-.1-2.65-2.29-4.71-4.35-5.09-.35-.06-.71-.09-1.06-.14v-.11c.12-.01.25-.03.37-.04,2.43-.13,4.34-2.15,4.82-3.92.13-.48.17-.98.25-1.47.04,0,.07,0,.11,0,0,.07.02.14.02.21.1,2.66,2.24,4.53,3.91,4.97.49.13,1,.17,1.5.25v.11c-.07,0-.14.02-.21.02-2.63.09-4.6,2.24-5.03,4.11-.1.42-.13.86-.19,1.3Z"/>
  <path class="cls-1" d="M21.2,24.92h-.11c0-.07-.02-.14-.02-.21-.1-2.65-2.29-4.71-4.35-5.09-.35-.06-.71-.09-1.06-.14v-.11c.12-.01.25-.03.37-.04,2.43-.13,4.34-2.15,4.82-3.92.13-.48.17-.98.25-1.47.04,0,.07,0,.11,0,0,.07.02.14.02.21.1,2.66,2.24,4.53,3.91,4.97.49.13,1,.17,1.5.25v.11c-.07,0-.14.02-.21.02-2.63.09-4.6,2.24-5.03,4.11-.1.42-.13.86-.19,1.3Z"/>
  <path class="cls-1" d="M199.28,105.14h-.11c0-.07-.02-.14-.02-.21-.1-2.65-2.29-4.71-4.35-5.09-.35-.06-.71-.09-1.06-.14v-.11c.12-.01.25-.03.37-.04,2.43-.13,4.34-2.15,4.82-3.92.13-.48.17-.98.25-1.47.04,0,.07,0,.11,0,0,.07.02.14.02.21.1,2.66,2.24,4.53,3.91,4.97.49.13,1,.17,1.5.25v.11c-.07,0-.14.02-.21.02-2.63.09-4.6,2.24-5.03,4.11-.1.42-.13.86-.19,1.3Z"/>
  <path class="cls-1" d="M339.16,105.14h-.11c0-.07-.02-.14-.02-.21-.1-2.65-2.29-4.71-4.35-5.09-.35-.06-.71-.09-1.06-.14v-.11c.12-.01.25-.03.37-.04,2.43-.13,4.34-2.15,4.82-3.92.13-.48.17-.98.25-1.47.04,0,.07,0,.11,0,0,.07.02.14.02.21.1,2.66,2.24,4.53,3.91,4.97.49.13,1,.17,1.5.25v.11c-.07,0-.14.02-.21.02-2.63.09-4.6,2.24-5.03,4.11-.1.42-.13.86-.19,1.3Z"/>
  <path class="cls-1" d="M127.54,105.14h-.11c0-.07-.02-.14-.02-.21-.1-2.65-2.29-4.71-4.35-5.09-.35-.06-.71-.09-1.06-.14v-.11c.12-.01.25-.03.37-.04,2.43-.13,4.34-2.15,4.82-3.92.13-.48.17-.98.25-1.47.04,0,.07,0,.11,0,0,.07.02.14.02.21.1,2.66,2.24,4.53,3.91,4.97.49.13,1,.17,1.5.25v.11c-.07,0-.14.02-.21.02-2.63.09-4.6,2.24-5.03,4.11-.1.42-.13.86-.19,1.3Z"/>
  <path class="cls-1" d="M318.52,145.16h-.11c0-.07-.02-.14-.02-.21-.1-2.65-2.29-4.71-4.35-5.09-.35-.06-.71-.09-1.06-.14v-.11c.12-.01.25-.03.37-.04,2.43-.13,4.34-2.15,4.82-3.92.13-.48.17-.98.25-1.47.04,0,.07,0,.11,0,0,.07.02.14.02.21.1,2.66,2.24,4.53,3.91,4.97.49.13,1,.17,1.5.25v.11c-.07,0-.14.02-.21.02-2.63.09-4.6,2.24-5.03,4.11-.1.42-.13.86-.19,1.3Z"/>
  <path class="cls-1" d="M92.81,145.16h-.11c0-.07-.02-.14-.02-.21-.1-2.65-2.29-4.71-4.35-5.09-.35-.06-.71-.09-1.06-.14v-.11c.12-.01.25-.03.37-.04,2.43-.13,4.34-2.15,4.82-3.92.13-.48.17-.98.25-1.47.04,0,.07,0,.11,0,0,.07.02.14.02.21.1,2.66,2.24,4.53,3.91,4.97.49.13,1,.17,1.5.25v.11c-.07,0-.14.02-.21.02-2.63.09-4.6,2.24-5.03,4.11-.1.42-.13.86-.19,1.3Z"/>
  <path class="cls-1" d="M222.59,24.92h-.11c0-.07-.02-.14-.02-.21-.1-2.65-2.29-4.71-4.35-5.09-.35-.06-.71-.09-1.06-.14v-.11c.12-.01.25-.03.37-.04,2.43-.13,4.34-2.15,4.82-3.92.13-.48.17-.98.25-1.47.04,0,.07,0,.11,0,0,.07.02.14.02.21.1,2.66,2.24,4.53,3.91,4.97.49.13,1,.17,1.5.25v.11c-.07,0-.14.02-.21.02-2.63.09-4.6,2.24-5.03,4.11-.1.42-.13.86-.19,1.3Z"/>
  <path class="cls-1" d="M338.69,24.92h-.11c0-.07-.02-.14-.02-.21-.1-2.65-2.29-4.71-4.35-5.09-.35-.06-.71-.09-1.06-.14v-.11c.12-.01.25-.03.37-.04,2.43-.13,4.34-2.15,4.82-3.92.13-.48.17-.98.25-1.47.04,0,.07,0,.11,0,0,.07.02.14.02.21.1,2.66,2.24,4.53,3.91,4.97.49.13,1,.17,1.5.25v.11c-.07,0-.14.02-.21.02-2.63.09-4.6,2.24-5.03,4.11-.1.42-.13.86-.19,1.3Z"/>
  <path class="cls-1" d="M289.44,65.8h-.11c0-.07-.02-.14-.02-.21-.1-2.65-2.29-4.71-4.35-5.09-.35-.06-.71-.09-1.06-.14v-.11c.12-.01.25-.03.37-.04,2.43-.13,4.34-2.15,4.82-3.92.13-.48.17-.98.25-1.47.04,0,.07,0,.11,0,0,.07.02.14.02.21.1,2.66,2.24,4.53,3.91,4.97.49.13,1,.17,1.5.25v.11c-.07,0-.14.02-.21.02-2.63.09-4.6,2.24-5.03,4.11-.1.42-.13.86-.19,1.3Z"/>
  <circle class="cls-1" cx="306.51" cy="81.62" r="1.39"/>
  <circle class="cls-1" cx="40.11" cy="81.62" r="1.39"/>
  <circle class="cls-1" cx="242.49" cy="81.62" r="1.39"/>
  <circle class="cls-1" cx="242.49" cy="33.83" r="1.39"/>
  <circle class="cls-1" cx="303.73" cy="19.43" r="1.39"/>
  <circle class="cls-1" cx="279.26" cy="117.89" r="1.39"/>
  <circle class="cls-1" cx="202.99" cy="117.89" r="1.39"/>
  <circle class="cls-1" cx="202.99" cy="146.55" r="1.39"/>
  <circle class="cls-1" cx="202.99" cy="33.83" r="1.39"/>
  <circle class="cls-1" cx="202.99" cy="67.12" r="1.39"/>
  <circle class="cls-1" cx="98.24" cy="20.82" r="1.39"/>
  <circle class="cls-1" cx="130.27" cy="51.26" r="1.39"/>
  <circle class="cls-1" cx="165.38" cy="98.88" r="1.39"/>
  <circle class="cls-1" cx="92.75" cy="51.26" r="1.39"/>
  <circle class="cls-1" cx="56.39" cy="51.26" r="1.39"/>
  <path class="cls-1" d="M26.69,237.13h-.11c0-.07-.02-.14-.02-.21-.1-2.65-2.29-4.71-4.35-5.09-.35-.06-.71-.09-1.06-.14v-.11c.12-.01.25-.03.37-.04,2.43-.13,4.34-2.15,4.82-3.92.13-.48.17-.98.25-1.47.04,0,.07,0,.11,0,0,.07.02.14.02.21.1,2.66,2.24,4.53,3.91,4.97.49.13,1,.17,1.5.25v.11c-.07,0-.14.02-.21.02-2.63.09-4.6,2.24-5.03,4.11-.1.42-.13.86-.19,1.3Z"/>
  <path class="cls-1" d="M26.69,149.42h-.11c0-.07-.02-.14-.02-.21-.1-2.65-2.29-4.71-4.35-5.09-.35-.06-.71-.09-1.06-.14v-.11c.12-.01.25-.03.37-.04,2.43-.13,4.34-2.15,4.82-3.92.13-.48.17-.98.25-1.47.04,0,.07,0,.11,0,0,.07.02.14.02.21.1,2.66,2.24,4.53,3.91,4.97.49.13,1,.17,1.5.25v.11c-.07,0-.14.02-.21.02-2.63.09-4.6,2.24-5.03,4.11-.1.42-.13.86-.19,1.3Z"/>
  <path class="cls-1" d="M26.69,277.15h-.11c0-.07-.02-.14-.02-.21-.1-2.65-2.29-4.71-4.35-5.09-.35-.06-.71-.09-1.06-.14v-.11c.12-.01.25-.03.37-.04,2.43-.13,4.34-2.15,4.82-3.92.13-.48.17-.98.25-1.47.04,0,.07,0,.11,0,0,.07.02.14.02.21.1,2.66,2.24,4.53,3.91,4.97.49.13,1,.17,1.5.25v.11c-.07,0-.14.02-.21.02-2.63.09-4.6,2.24-5.03,4.11-.1.42-.13.86-.19,1.3Z"/>
  <path class="cls-1" d="M79.64,235.24h-.11c0-.07-.02-.14-.02-.21-.1-2.65-2.29-4.71-4.35-5.09-.35-.06-.71-.09-1.06-.14v-.11c.12-.01.25-.03.37-.04,2.43-.13,4.34-2.15,4.82-3.92.13-.48.17-.98.25-1.47.04,0,.07,0,.11,0,0,.07.02.14.02.21.1,2.66,2.24,4.53,3.91,4.97.49.13,1,.17,1.5.25v.11c-.07,0-.14.02-.21.02-2.63.09-4.6,2.24-5.03,4.11-.1.42-.13.86-.19,1.3Z"/>
  <circle class="cls-1" cx="128.88" cy="152.81" r="1.39"/>
  <circle class="cls-1" cx="107.82" cy="183.25" r="1.39"/>
  <circle class="cls-1" cx="107.82" cy="213.14" r="1.39"/>
  <circle class="cls-1" cx="107.82" cy="275" r="1.39"/>
  <circle class="cls-1" cx="169.62" cy="183.25" r="1.39"/>
  <circle class="cls-1" cx="56.12" cy="183.25" r="1.39"/>
  <circle class="cls-1" cx="19.76" cy="183.25" r="1.39"/>
  <circle class="cls-1" cx="323.4" cy="51.26" r="1.39"/>
  <path class="cls-1" d="M199.28,234.63h-.11c0-.07-.02-.14-.02-.21-.1-2.65-2.29-4.71-4.35-5.09-.35-.06-.71-.09-1.06-.14v-.11c.12-.01.25-.03.37-.04,2.43-.13,4.34-2.15,4.82-3.92.13-.48.17-.98.25-1.47.04,0,.07,0,.11,0,0,.07.02.14.02.21.1,2.66,2.24,4.53,3.91,4.97.49.13,1,.17,1.5.25v.11c-.07,0-.14.02-.21.02-2.63.09-4.6,2.24-5.03,4.11-.1.42-.13.86-.19,1.3Z"/>
  <path class="cls-1" d="M162.83,234.63h-.11c0-.07-.02-.14-.02-.21-.1-2.65-2.29-4.71-4.35-5.09-.35-.06-.71-.09-1.06-.14v-.11c.12-.01.25-.03.37-.04,2.43-.13,4.34-2.15,4.82-3.92.13-.48.17-.98.25-1.47.04,0,.07,0,.11,0,0,.07.02.14.02.21.1,2.66,2.24,4.53,3.91,4.97.49.13,1,.17,1.5.25v.11c-.07,0-.14.02-.21.02-2.63.09-4.6,2.24-5.03,4.11-.1.42-.13.86-.19,1.3Z"/>
  <path class="cls-1" d="M229.31,274.65h-.11c0-.07-.02-.14-.02-.21-.1-2.65-2.29-4.71-4.35-5.09-.35-.06-.71-.09-1.06-.14v-.11c.12-.01.25-.03.37-.04,2.43-.13,4.34-2.15,4.82-3.92.13-.48.17-.98.25-1.47.04,0,.07,0,.11,0,0,.07.02.14.02.21.1,2.66,2.24,4.53,3.91,4.97.49.13,1,.17,1.5.25v.11c-.07,0-.14.02-.21.02-2.63.09-4.6,2.24-5.03,4.11-.1.42-.13.86-.19,1.3Z"/>
  <path class="cls-1" d="M338.69,274.65h-.11c0-.07-.02-.14-.02-.21-.1-2.65-2.29-4.71-4.35-5.09-.35-.06-.71-.09-1.06-.14v-.11c.12-.01.25-.03.37-.04,2.43-.13,4.34-2.15,4.82-3.92.13-.48.17-.98.25-1.47.04,0,.07,0,.11,0,0,.07.02.14.02.21.1,2.66,2.24,4.53,3.91,4.97.49.13,1,.17,1.5.25v.11c-.07,0-.14.02-.21.02-2.63.09-4.6,2.24-5.03,4.11-.1.42-.13.86-.19,1.3Z"/>
  <path class="cls-1" d="M226.42,189.8h-.11c0-.07-.02-.14-.02-.21-.1-2.65-2.29-4.71-4.35-5.09-.35-.06-.71-.09-1.06-.14v-.11c.12-.01.25-.03.37-.04,2.43-.13,4.34-2.15,4.82-3.92.13-.48.17-.98.25-1.47.04,0,.07,0,.11,0,0,.07.02.14.02.21.1,2.66,2.24,4.53,3.91,4.97.49.13,1,.17,1.5.25v.11c-.07,0-.14.02-.21.02-2.63.09-4.6,2.24-5.03,4.11-.1.42-.13.86-.19,1.3Z"/>
  <path class="cls-1" d="M289.44,195.29h-.11c0-.07-.02-.14-.02-.21-.1-2.65-2.29-4.71-4.35-5.09-.35-.06-.71-.09-1.06-.14v-.11c.12-.01.25-.03.37-.04,2.43-.13,4.34-2.15,4.82-3.92.13-.48.17-.98.25-1.47.04,0,.07,0,.11,0,0,.07.02.14.02.21.1,2.66,2.24,4.53,3.91,4.97.49.13,1,.17,1.5.25v.11c-.07,0-.14.02-.21.02-2.63.09-4.6,2.24-5.03,4.11-.1.42-.13.86-.19,1.3Z"/>
  <circle class="cls-1" cx="306.51" cy="211.11" r="1.39"/>
  <circle class="cls-1" cx="306.51" cy="276.04" r="1.39"/>
  <circle class="cls-1" cx="277.87" cy="246.48" r="1.39"/>
  <circle class="cls-1" cx="242.49" cy="247.37" r="1.39"/>
  <circle class="cls-1" cx="202.99" cy="247.37" r="1.39"/>
  <circle class="cls-1" cx="150.43" cy="276.04" r="1.39"/>
  <circle class="cls-1" cx="323.4" cy="180.75" r="1.39"/>
</svg>